<svg width="44" height="43" viewBox="0 0 44 43" fill="#000" xmlns="http://www.w3.org/2000/svg">
<path d="M40 23C40 26.9556 38.827 30.8224 36.6294 34.1114C34.4318 37.4004 31.3082 39.9638 27.6537 41.4776C23.9991 42.9913 19.9778 43.3874 16.0982 42.6157C12.2186 41.844 8.65491 39.9392 5.85786 37.1421C3.06081 34.3451 1.156 30.7814 0.384294 26.9018C-0.38741 23.0222 0.00865672 19.0009 1.52241 15.3463C3.03616 11.6918 5.59961 8.56824 8.8886 6.37061C12.1776 4.17298 16.0444 3 20 3L20 23H40Z" fill="#8367E7"/>
<path d="M24 -8.74228e-07C26.6264 -9.89033e-07 29.2272 0.517314 31.6537 1.52241C34.0802 2.5275 36.285 4.00069 38.1421 5.85786C39.9993 7.71503 41.4725 9.91982 42.4776 12.3463C43.4827 14.7728 44 17.3736 44 20L24 20L24 -8.74228e-07Z" fill="#A797ED"/>
</svg>
